<mxfile host="app.diagrams.net" agent="Mozilla/5.0 (Windows NT 10.0; Win64; x64) AppleWebKit/537.36 (KHTML, like Gecko) Chrome/139.0.0.0 Safari/537.36" version="28.0.7">
  <diagram name="Página-1" id="UiImWmVIGDlKID6ZrKtW">
    <mxGraphModel dx="1106" dy="587" grid="1" gridSize="10" guides="1" tooltips="1" connect="1" arrows="1" fold="1" page="1" pageScale="1" pageWidth="827" pageHeight="1169" math="0" shadow="0">
      <root>
        <mxCell id="0" />
        <mxCell id="1" parent="0" />
        <mxCell id="lJreIi_V0ZqFMvAKPOmW-2" style="edgeStyle=orthogonalEdgeStyle;rounded=0;orthogonalLoop=1;jettySize=auto;html=1;" edge="1" parent="1" source="lJreIi_V0ZqFMvAKPOmW-1" target="lJreIi_V0ZqFMvAKPOmW-3">
          <mxGeometry relative="1" as="geometry">
            <mxPoint x="365" y="160" as="targetPoint" />
          </mxGeometry>
        </mxCell>
        <mxCell id="lJreIi_V0ZqFMvAKPOmW-1" value="usuario ingresa sus datos" style="rounded=0;whiteSpace=wrap;html=1;" vertex="1" parent="1">
          <mxGeometry x="322.5" y="50" width="210" height="60" as="geometry" />
        </mxCell>
        <mxCell id="lJreIi_V0ZqFMvAKPOmW-7" value="" style="edgeStyle=orthogonalEdgeStyle;rounded=0;orthogonalLoop=1;jettySize=auto;html=1;" edge="1" parent="1" source="lJreIi_V0ZqFMvAKPOmW-3" target="lJreIi_V0ZqFMvAKPOmW-6">
          <mxGeometry relative="1" as="geometry" />
        </mxCell>
        <mxCell id="lJreIi_V0ZqFMvAKPOmW-3" value="realiza registro en base de datos y deja en estado pendiente al usuario y lo reenvía&amp;nbsp; al modal de verificar mediante Correo o WhatsApp&amp;nbsp;" style="rounded=0;whiteSpace=wrap;html=1;" vertex="1" parent="1">
          <mxGeometry x="335" y="170" width="185" height="100" as="geometry" />
        </mxCell>
        <mxCell id="lJreIi_V0ZqFMvAKPOmW-9" value="" style="edgeStyle=orthogonalEdgeStyle;rounded=0;orthogonalLoop=1;jettySize=auto;html=1;" edge="1" parent="1" source="lJreIi_V0ZqFMvAKPOmW-6" target="lJreIi_V0ZqFMvAKPOmW-8">
          <mxGeometry relative="1" as="geometry" />
        </mxCell>
        <mxCell id="lJreIi_V0ZqFMvAKPOmW-11" value="" style="edgeStyle=orthogonalEdgeStyle;rounded=0;orthogonalLoop=1;jettySize=auto;html=1;" edge="1" parent="1" source="lJreIi_V0ZqFMvAKPOmW-6" target="lJreIi_V0ZqFMvAKPOmW-10">
          <mxGeometry relative="1" as="geometry" />
        </mxCell>
        <mxCell id="lJreIi_V0ZqFMvAKPOmW-6" value="Modal:&lt;div&gt;desea realizar verificación mediante:&lt;/div&gt;" style="rhombus;whiteSpace=wrap;html=1;rounded=0;" vertex="1" parent="1">
          <mxGeometry x="370" y="330" width="115" height="130" as="geometry" />
        </mxCell>
        <mxCell id="lJreIi_V0ZqFMvAKPOmW-13" style="edgeStyle=orthogonalEdgeStyle;rounded=0;orthogonalLoop=1;jettySize=auto;html=1;exitX=0.5;exitY=1;exitDx=0;exitDy=0;entryX=0.75;entryY=0;entryDx=0;entryDy=0;" edge="1" parent="1" source="lJreIi_V0ZqFMvAKPOmW-8" target="lJreIi_V0ZqFMvAKPOmW-14">
          <mxGeometry relative="1" as="geometry">
            <mxPoint x="390" y="560" as="targetPoint" />
            <Array as="points">
              <mxPoint x="560" y="480" />
              <mxPoint x="393" y="480" />
            </Array>
          </mxGeometry>
        </mxCell>
        <mxCell id="lJreIi_V0ZqFMvAKPOmW-15" value="Validar token" style="edgeLabel;html=1;align=center;verticalAlign=middle;resizable=0;points=[];" vertex="1" connectable="0" parent="lJreIi_V0ZqFMvAKPOmW-13">
          <mxGeometry x="-0.0472" y="2" relative="1" as="geometry">
            <mxPoint as="offset" />
          </mxGeometry>
        </mxCell>
        <mxCell id="lJreIi_V0ZqFMvAKPOmW-8" value="Envió de token vía WhatsApp" style="whiteSpace=wrap;html=1;rounded=0;" vertex="1" parent="1">
          <mxGeometry x="530" y="365" width="120" height="60" as="geometry" />
        </mxCell>
        <mxCell id="lJreIi_V0ZqFMvAKPOmW-12" style="edgeStyle=orthogonalEdgeStyle;rounded=0;orthogonalLoop=1;jettySize=auto;html=1;exitX=0.5;exitY=1;exitDx=0;exitDy=0;entryX=0.25;entryY=0;entryDx=0;entryDy=0;" edge="1" parent="1" source="lJreIi_V0ZqFMvAKPOmW-10" target="lJreIi_V0ZqFMvAKPOmW-14">
          <mxGeometry relative="1" as="geometry">
            <mxPoint x="360" y="550" as="targetPoint" />
          </mxGeometry>
        </mxCell>
        <mxCell id="lJreIi_V0ZqFMvAKPOmW-16" value="Validar token" style="edgeLabel;html=1;align=center;verticalAlign=middle;resizable=0;points=[];" vertex="1" connectable="0" parent="lJreIi_V0ZqFMvAKPOmW-12">
          <mxGeometry x="-0.0816" y="-3" relative="1" as="geometry">
            <mxPoint y="1" as="offset" />
          </mxGeometry>
        </mxCell>
        <mxCell id="lJreIi_V0ZqFMvAKPOmW-10" value="Envió de token vía Email." style="whiteSpace=wrap;html=1;rounded=0;" vertex="1" parent="1">
          <mxGeometry x="210" y="365" width="120" height="60" as="geometry" />
        </mxCell>
        <mxCell id="lJreIi_V0ZqFMvAKPOmW-19" value="" style="edgeStyle=orthogonalEdgeStyle;rounded=0;orthogonalLoop=1;jettySize=auto;html=1;" edge="1" parent="1" source="lJreIi_V0ZqFMvAKPOmW-14" target="lJreIi_V0ZqFMvAKPOmW-18">
          <mxGeometry relative="1" as="geometry" />
        </mxCell>
        <mxCell id="lJreIi_V0ZqFMvAKPOmW-14" value="validación de token" style="rounded=0;whiteSpace=wrap;html=1;" vertex="1" parent="1">
          <mxGeometry x="370" y="540" width="120" height="60" as="geometry" />
        </mxCell>
        <mxCell id="lJreIi_V0ZqFMvAKPOmW-21" value="" style="edgeStyle=orthogonalEdgeStyle;rounded=0;orthogonalLoop=1;jettySize=auto;html=1;" edge="1" parent="1" source="lJreIi_V0ZqFMvAKPOmW-18" target="lJreIi_V0ZqFMvAKPOmW-20">
          <mxGeometry relative="1" as="geometry" />
        </mxCell>
        <mxCell id="lJreIi_V0ZqFMvAKPOmW-25" value="No" style="edgeLabel;html=1;align=center;verticalAlign=middle;resizable=0;points=[];" vertex="1" connectable="0" parent="lJreIi_V0ZqFMvAKPOmW-21">
          <mxGeometry x="-0.0305" y="-1" relative="1" as="geometry">
            <mxPoint as="offset" />
          </mxGeometry>
        </mxCell>
        <mxCell id="lJreIi_V0ZqFMvAKPOmW-23" value="" style="edgeStyle=orthogonalEdgeStyle;rounded=0;orthogonalLoop=1;jettySize=auto;html=1;entryX=1;entryY=0.5;entryDx=0;entryDy=0;" edge="1" parent="1" source="lJreIi_V0ZqFMvAKPOmW-18" target="lJreIi_V0ZqFMvAKPOmW-26">
          <mxGeometry relative="1" as="geometry">
            <mxPoint x="235" y="695" as="targetPoint" />
          </mxGeometry>
        </mxCell>
        <mxCell id="lJreIi_V0ZqFMvAKPOmW-24" value="Si" style="edgeLabel;html=1;align=center;verticalAlign=middle;resizable=0;points=[];" vertex="1" connectable="0" parent="lJreIi_V0ZqFMvAKPOmW-23">
          <mxGeometry x="-0.1119" y="2" relative="1" as="geometry">
            <mxPoint as="offset" />
          </mxGeometry>
        </mxCell>
        <mxCell id="lJreIi_V0ZqFMvAKPOmW-18" value="¿El token es el correcto?" style="rhombus;whiteSpace=wrap;html=1;rounded=0;" vertex="1" parent="1">
          <mxGeometry x="376.25" y="640" width="107.5" height="110" as="geometry" />
        </mxCell>
        <mxCell id="lJreIi_V0ZqFMvAKPOmW-20" value="El token e incorrecto por favor inténtelo nuevamente." style="whiteSpace=wrap;html=1;rounded=0;" vertex="1" parent="1">
          <mxGeometry x="630" y="665" width="120" height="60" as="geometry" />
        </mxCell>
        <mxCell id="lJreIi_V0ZqFMvAKPOmW-28" value="" style="edgeStyle=orthogonalEdgeStyle;rounded=0;orthogonalLoop=1;jettySize=auto;html=1;" edge="1" parent="1" source="lJreIi_V0ZqFMvAKPOmW-26" target="lJreIi_V0ZqFMvAKPOmW-27">
          <mxGeometry relative="1" as="geometry" />
        </mxCell>
        <mxCell id="lJreIi_V0ZqFMvAKPOmW-30" value="No" style="edgeLabel;html=1;align=center;verticalAlign=middle;resizable=0;points=[];" vertex="1" connectable="0" parent="lJreIi_V0ZqFMvAKPOmW-28">
          <mxGeometry x="-0.12" relative="1" as="geometry">
            <mxPoint as="offset" />
          </mxGeometry>
        </mxCell>
        <mxCell id="lJreIi_V0ZqFMvAKPOmW-37" value="" style="edgeStyle=orthogonalEdgeStyle;rounded=0;orthogonalLoop=1;jettySize=auto;html=1;" edge="1" parent="1" source="lJreIi_V0ZqFMvAKPOmW-26" target="lJreIi_V0ZqFMvAKPOmW-36">
          <mxGeometry relative="1" as="geometry" />
        </mxCell>
        <mxCell id="lJreIi_V0ZqFMvAKPOmW-38" value="Si" style="edgeLabel;html=1;align=center;verticalAlign=middle;resizable=0;points=[];" vertex="1" connectable="0" parent="lJreIi_V0ZqFMvAKPOmW-37">
          <mxGeometry x="-0.2545" y="-2" relative="1" as="geometry">
            <mxPoint as="offset" />
          </mxGeometry>
        </mxCell>
        <mxCell id="lJreIi_V0ZqFMvAKPOmW-26" value="¿El token aun es válido y no ha expirado??" style="rhombus;whiteSpace=wrap;html=1;" vertex="1" parent="1">
          <mxGeometry x="75" y="635" width="130" height="120" as="geometry" />
        </mxCell>
        <mxCell id="lJreIi_V0ZqFMvAKPOmW-40" style="edgeStyle=orthogonalEdgeStyle;rounded=0;orthogonalLoop=1;jettySize=auto;html=1;exitX=0.5;exitY=0;exitDx=0;exitDy=0;entryX=0.5;entryY=0;entryDx=0;entryDy=0;" edge="1" parent="1" source="lJreIi_V0ZqFMvAKPOmW-27" target="lJreIi_V0ZqFMvAKPOmW-6">
          <mxGeometry relative="1" as="geometry" />
        </mxCell>
        <mxCell id="lJreIi_V0ZqFMvAKPOmW-27" value="Pagina de generar nuevo token:&lt;span style=&quot;background-color: transparent; color: light-dark(rgb(0, 0, 0), rgb(255, 255, 255));&quot;&gt;&amp;nbsp;&lt;/span&gt;" style="whiteSpace=wrap;html=1;" vertex="1" parent="1">
          <mxGeometry x="80" y="500" width="120" height="60" as="geometry" />
        </mxCell>
        <mxCell id="lJreIi_V0ZqFMvAKPOmW-36" value="Usuario creado y validado correctamente." style="whiteSpace=wrap;html=1;" vertex="1" parent="1">
          <mxGeometry x="80" y="820" width="120" height="60" as="geometry" />
        </mxCell>
        <mxCell id="lJreIi_V0ZqFMvAKPOmW-41" style="edgeStyle=orthogonalEdgeStyle;rounded=0;orthogonalLoop=1;jettySize=auto;html=1;entryX=1.033;entryY=0.4;entryDx=0;entryDy=0;entryPerimeter=0;" edge="1" parent="1" source="lJreIi_V0ZqFMvAKPOmW-20" target="lJreIi_V0ZqFMvAKPOmW-14">
          <mxGeometry relative="1" as="geometry">
            <Array as="points">
              <mxPoint x="690" y="564" />
            </Array>
          </mxGeometry>
        </mxCell>
        <mxCell id="lJreIi_V0ZqFMvAKPOmW-42" value="Redirección a verificación de token" style="edgeLabel;html=1;align=center;verticalAlign=middle;resizable=0;points=[];" vertex="1" connectable="0" parent="lJreIi_V0ZqFMvAKPOmW-41">
          <mxGeometry x="0.0436" y="1" relative="1" as="geometry">
            <mxPoint as="offset" />
          </mxGeometry>
        </mxCell>
      </root>
    </mxGraphModel>
  </diagram>
</mxfile>
